<svg width="96" height="130" viewBox="0 0 96 130" fill="none" xmlns="http://www.w3.org/2000/svg">
<g filter="url(#filter0_d)">
    <rect x="0" y="0" width="96" height="130" rx="8" fill="white"/>
</g>
<mask id="mask0" mask-type="alpha" maskUnits="userSpaceOnUse" x="0" y="0" width="96" height="130">
    <rect x="0.5" y="0.5" width="95" height="129" rx="7.5" fill="#F5F8FF" stroke="#D5DDE0"/>
</mask>
<g mask="url(#mask0)">
    <path d="M108.991 81.1693C109.003 79.0436 109.003 79.0436 108.993 74.0554C108.98 67.1587 98.3454 74.7315 92.2486 74.6336C86.5772 74.5421 82.7372 74.2206 75.6371 70.9019C67.0627 66.8944 56.8349 58.277 46.6986 57.4945C38.899 56.893 28.1391 61.8037 18.0221 63.9883C4.27052 66.9579 -1.48463 53.7797 -12.366 57.7538L-13 177L108.456 176.212L108.991 81.1693Z" fill="#418DE8"/>
    <path d="M55.5857 113.311C55.5857 113.311 55.5857 116.111 55.5857 116.387C55.5857 116.661 54.5181 117.074 53.3699 118.604C52.2227 120.134 52 121.805 52 122.935C52 123.142 52 123.36 52 123.586C52 124.178 52 124.829 52 125.525C52 125.659 52.1154 125.769 52.2544 125.769H58.1824C58.3244 125.769 58.4378 125.659 58.4378 125.523V123.587V113.311H55.5857Z" fill="#D6FEFD"/>
    <path d="M58.1824 126.075H52.2544C52.1154 126.075 52 126.185 52 126.321C52 126.939 52 127.588 52 128.258C52 128.394 52.1154 128.503 52.2544 128.503H58.1824C58.3244 128.503 58.4378 128.394 58.4378 128.257V126.321C58.4378 126.186 58.3244 126.075 58.1824 126.075Z" fill="white"/>
    <path d="M58.1824 128.81H52.2544C52.1154 128.81 52 128.92 52 129.054C52 129.685 52 130.334 52 130.993C52 131.127 52.1154 131.237 52.2544 131.237H58.1824C58.3244 131.237 58.4378 131.127 58.4378 130.992V129.054C58.4378 128.92 58.3244 128.81 58.1824 128.81Z" fill="white"/>
    <path d="M58.1825 128.81C58.3245 128.81 58.4379 128.92 58.4379 129.054V128.257C58.4379 128.394 58.3245 128.503 58.1825 128.503H52.2544V128.81H58.1825Z" fill="white"/>
    <path d="M58.1825 126.075C58.3245 126.075 58.4379 126.186 58.4379 126.321V125.523C58.4379 125.659 58.3245 125.769 58.1825 125.769H52.2544V126.075H58.1825Z" fill="white"/>
    <path d="M61.2912 113.311C61.2912 113.311 61.2912 116.111 61.2912 116.387C61.2912 116.661 62.3587 117.074 63.508 118.604C64.6541 120.134 64.8779 121.805 64.8779 122.935C64.8779 123.142 64.8779 123.36 64.8779 123.586C64.8779 124.178 64.8779 124.829 64.8779 125.525C64.8779 125.659 64.7634 125.769 64.6235 125.769H58.6934C58.5544 125.769 58.438 125.659 58.438 125.523V123.587V113.311H61.2912Z" fill="#BDEEED"/>
    <path d="M58.6934 126.075H64.6235C64.7634 126.075 64.8779 126.185 64.8779 126.321C64.8779 126.939 64.8779 127.588 64.8779 128.258C64.8779 128.394 64.7634 128.503 64.6235 128.503H58.6934C58.5544 128.503 58.438 128.394 58.438 128.257V126.321C58.438 126.186 58.5544 126.075 58.6934 126.075Z" fill="white"/>
    <path d="M58.6934 128.81H64.6235C64.7634 128.81 64.8779 128.92 64.8779 129.054C64.8779 129.685 64.8779 130.334 64.8779 130.993C64.8779 131.127 64.7634 131.237 64.6235 131.237H58.6934C58.5544 131.237 58.438 131.127 58.438 130.992V129.054C58.438 128.92 58.5544 128.81 58.6934 128.81Z" fill="white"/>
    <path d="M58.6934 128.81C58.5544 128.81 58.438 128.92 58.438 129.054V128.257C58.438 128.394 58.5544 128.503 58.6934 128.503H64.6235V128.81H58.6934Z" fill="white"/>
    <path d="M58.6934 126.075C58.5544 126.075 58.438 126.186 58.438 126.321V125.523C58.438 125.659 58.5544 125.769 58.6934 125.769H64.6235V126.075H58.6934Z" fill="white"/>
    <path d="M52 122.745C52 122.952 52 123.17 52 123.396C52 123.988 52 124.639 52 125.335C52 125.469 52.1154 125.579 52.2544 125.579V125.885C52.1154 125.885 52 125.995 52 126.131C52 126.749 52 127.398 52 128.068C52 128.204 52.1154 128.313 52.2544 128.313V128.62C52.1154 128.62 52 128.73 52 128.864C52 129.495 52 130.144 52 130.803C52 130.937 52.1154 131.047 52.2544 131.047V131.353C52.1154 131.353 52 131.463 52 131.598C52 132.239 52 132.886 52 133.535C52 139.273 52 145.173 52 147.59C52 151.752 53.5303 153.405 55.1883 153.405C56.8463 153.405 56.9729 152.792 58.4378 152.792C59.9048 152.792 60.0335 153.405 61.6905 153.405C63.3464 153.405 64.8777 151.752 64.8777 147.59C64.8777 145.173 64.8777 139.273 64.8777 133.535C64.8777 132.886 64.8777 132.239 64.8777 131.598C64.8777 131.463 64.7633 131.353 64.6233 131.353V131.047C64.7633 131.047 64.8777 130.937 64.8777 130.803C64.8777 130.144 64.8777 129.495 64.8777 128.864C64.8777 128.73 64.7633 128.62 64.6233 128.62V128.313C64.7633 128.313 64.8777 128.204 64.8777 128.068C64.8777 127.398 64.8777 126.749 64.8777 126.131C64.8777 125.995 64.7633 125.885 64.6233 125.885V125.579C64.7633 125.579 64.8777 125.469 64.8777 125.335C64.8777 124.639 64.8777 123.988 64.8777 123.396C64.8777 123.17 64.8777 122.952 64.8777 122.745C64.8777 122.238 64.8276 121.622 64.6734 120.96H52.2053C52.0511 121.622 52 122.238 52 122.745Z" fill="#87E3FF"/>
    <path d="M59.8489 116.387C59.8969 116.787 60.1043 117.126 60.4077 117.352C60.6968 117.591 61.0564 117.769 61.3914 118C62.0677 118.446 62.6541 119.07 63.0678 119.778C63.4785 120.497 63.7165 121.31 63.7635 122.124C63.8074 122.945 63.7093 123.723 63.6276 124.519C63.5755 124.124 63.552 123.728 63.5142 123.331C63.4907 122.932 63.4734 122.545 63.4059 122.164C63.2782 121.403 63.0474 120.667 62.6622 120.013C62.2853 119.347 61.7704 118.783 61.1759 118.287C60.8848 118.033 60.5425 117.821 60.2514 117.517C59.9674 117.213 59.7876 116.786 59.8489 116.387Z" fill="white"/>
    <path d="M58.7513 111C58.5796 111 58.2977 111 58.1271 111H55.2657C55.0941 111 54.9531 111.14 54.9531 111.313V113.789C54.9531 113.96 55.0941 114.101 55.2657 114.101H58.1271C58.2977 114.101 58.5796 114.101 58.7513 114.101H61.6126C61.7843 114.101 61.9232 113.96 61.9232 113.789V111.313C61.9232 111.14 61.7843 111 61.6126 111H58.7513Z" fill="white"/>
    <path d="M58.4379 114.831H54.7256V114.363H58.4379V114.831Z" fill="#276B8A"/>
    <path d="M62.1524 114.831H58.438V114.363H62.1524V114.831Z" fill="#276B8A"/>
    <path d="M54.2456 125.715C55.6431 125.532 57.0416 125.49 58.4401 125.482C59.8366 125.489 61.2361 125.531 62.6336 125.715C61.2361 125.901 59.8366 125.943 58.4401 125.95C57.0416 125.942 55.6431 125.9 54.2456 125.715Z" fill="white"/>
    <path d="M54.2456 128.552C55.6431 128.368 57.0416 128.327 58.4401 128.318C59.8366 128.325 61.2361 128.367 62.6336 128.552C61.2361 128.738 59.8366 128.78 58.4401 128.787C57.0416 128.779 55.6431 128.737 54.2456 128.552Z" fill="white"/>
    <path d="M61.6906 153.595C60.0337 153.595 59.9049 152.788 58.438 152.788V131.623C58.439 131.623 58.44 131.623 58.44 131.623C59.8365 131.616 61.236 131.574 62.6335 131.389C61.236 131.203 59.8365 131.161 58.44 131.154C58.44 131.154 58.439 131.154 58.438 131.154V128.787C58.439 128.787 58.44 128.787 58.44 128.787C59.8365 128.78 61.236 128.738 62.6335 128.552C61.236 128.367 59.8365 128.325 58.44 128.318C58.44 128.318 58.439 128.318 58.438 128.318V125.95C58.439 125.95 58.44 125.95 58.44 125.95C59.8365 125.943 61.236 125.901 62.6335 125.715C61.236 125.531 59.8365 125.489 58.44 125.482C58.44 125.482 58.439 125.482 58.438 125.482V121.15H63.1637C63.2689 121.479 63.3476 121.819 63.4058 122.164C63.4732 122.545 63.4906 122.932 63.5141 123.331C63.5519 123.728 63.5754 124.124 63.6275 124.519C63.7092 123.723 63.8073 122.945 63.7633 122.124C63.745 121.797 63.6949 121.47 63.6152 121.15H64.6736C64.8278 121.812 64.8779 122.428 64.8779 122.935C64.8779 123.142 64.8779 123.36 64.8779 123.586C64.8779 124.178 64.8779 124.829 64.8779 125.525C64.8779 125.659 64.7634 125.769 64.6235 125.769V126.075C64.7634 126.075 64.8779 126.185 64.8779 126.321C64.8779 126.939 64.8779 127.588 64.8779 128.258C64.8779 128.394 64.7634 128.503 64.6235 128.503V128.81C64.7634 128.81 64.8779 128.92 64.8779 129.054C64.8779 129.685 64.8779 130.334 64.8779 130.993C64.8779 131.127 64.7634 131.237 64.6235 131.237V131.543C64.7634 131.543 64.8779 131.653 64.8779 131.788C64.8779 132.429 64.8779 133.076 64.8779 133.725C64.8779 139.464 64.8779 145.363 64.8779 147.78C64.8779 151.942 63.3466 153.595 61.6906 153.595ZM63.6275 132.794C63.5325 134.491 63.4865 136.187 63.4487 137.885C63.4089 139.581 63.4119 141.279 63.3935 142.976L63.4446 148.066C63.4477 148.9 63.3864 149.744 63.1749 150.55C63.0707 150.953 62.9298 151.349 62.6999 151.695C62.4741 152.032 62.1258 152.325 61.6906 152.344C61.7162 152.347 61.7427 152.347 61.7682 152.347C62.1738 152.347 62.5528 152.089 62.8 151.769C63.0707 151.426 63.2526 151.024 63.3946 150.616C63.6602 149.79 63.7633 148.929 63.8052 148.07C63.8492 146.369 63.843 144.674 63.8624 142.976C63.843 141.279 63.8461 139.581 63.8073 137.885C63.7695 136.187 63.7235 134.491 63.6275 132.794Z" fill="#3F9AC4"/>
    <path d="M63.6274 124.519C63.5753 124.124 63.5518 123.728 63.514 123.331C63.4905 122.932 63.4731 122.545 63.4057 122.164C63.3475 121.819 63.2688 121.479 63.1636 121.15H63.6151C63.6948 121.47 63.7448 121.797 63.7632 122.124C63.8072 122.945 63.7091 123.723 63.6274 124.519Z" fill="#E2FAFA"/>
    <path d="M58.44 125.95C58.44 125.95 58.439 125.95 58.438 125.95V125.482C58.439 125.482 58.44 125.482 58.44 125.482C59.8365 125.489 61.236 125.531 62.6335 125.715C61.236 125.901 59.8365 125.943 58.44 125.95Z" fill="#E2FAFA"/>
    <path d="M58.44 128.787C58.44 128.787 58.439 128.787 58.438 128.787V128.318C58.439 128.318 58.44 128.318 58.44 128.318C59.8365 128.325 61.236 128.367 62.6335 128.552C61.236 128.738 59.8365 128.78 58.44 128.787Z" fill="#E2FAFA"/>
    <path d="M64.5857 103.311C64.5857 103.311 64.5857 106.111 64.5857 106.387C64.5857 106.661 63.5181 107.074 62.3699 108.604C61.2227 110.134 61 111.805 61 112.935C61 113.142 61 113.36 61 113.586C61 114.178 61 114.829 61 115.525C61 115.659 61.1154 115.769 61.2544 115.769H67.1824C67.3244 115.769 67.4378 115.659 67.4378 115.523V113.587V103.311H64.5857Z" fill="#D6FEFD"/>
    <path d="M67.1824 116.075H61.2544C61.1154 116.075 61 116.185 61 116.321C61 116.939 61 117.588 61 118.258C61 118.394 61.1154 118.503 61.2544 118.503H67.1824C67.3244 118.503 67.4378 118.394 67.4378 118.257V116.321C67.4378 116.186 67.3244 116.075 67.1824 116.075Z" fill="white"/>
    <path d="M67.1824 118.81H61.2544C61.1154 118.81 61 118.92 61 119.054C61 119.685 61 120.334 61 120.993C61 121.127 61.1154 121.237 61.2544 121.237H67.1824C67.3244 121.237 67.4378 121.127 67.4378 120.992V119.054C67.4378 118.92 67.3244 118.81 67.1824 118.81Z" fill="white"/>
    <path d="M67.1824 121.543H61.2544C61.1154 121.543 61 121.653 61 121.788C61 122.429 61 123.076 61 123.725C61 129.464 61 135.363 61 137.78C61 141.942 62.5303 143.595 64.1883 143.595C65.8463 143.595 65.9729 142.982 67.4378 142.982V123.725V121.788C67.4378 121.653 67.3244 121.543 67.1824 121.543Z" fill="white"/>
    <path d="M67.1825 118.81C67.3245 118.81 67.4379 118.92 67.4379 119.054V118.257C67.4379 118.394 67.3245 118.503 67.1825 118.503H61.2544V118.81H67.1825Z" fill="white"/>
    <path d="M67.1825 121.543C67.3245 121.543 67.4379 121.653 67.4379 121.788V120.992C67.4379 121.127 67.3245 121.237 67.1825 121.237H61.2544V121.543H67.1825Z" fill="white"/>
    <path d="M67.1825 116.075C67.3245 116.075 67.4379 116.186 67.4379 116.321V115.523C67.4379 115.659 67.3245 115.769 67.1825 115.769H61.2544V116.075H67.1825Z" fill="white"/>
    <path d="M70.2912 103.311C70.2912 103.311 70.2912 106.111 70.2912 106.387C70.2912 106.661 71.3587 107.074 72.508 108.604C73.6541 110.134 73.8779 111.805 73.8779 112.935C73.8779 113.142 73.8779 113.36 73.8779 113.586C73.8779 114.178 73.8779 114.829 73.8779 115.525C73.8779 115.659 73.7634 115.769 73.6235 115.769H67.6934C67.5544 115.769 67.438 115.659 67.438 115.523V113.587V103.311H70.2912Z" fill="#BDEEED"/>
    <path d="M67.6934 116.075H73.6235C73.7634 116.075 73.8779 116.185 73.8779 116.321C73.8779 116.939 73.8779 117.588 73.8779 118.258C73.8779 118.394 73.7634 118.503 73.6235 118.503H67.6934C67.5544 118.503 67.438 118.394 67.438 118.257V116.321C67.438 116.186 67.5544 116.075 67.6934 116.075Z" fill="white"/>
    <path d="M67.6934 118.81H73.6235C73.7634 118.81 73.8779 118.92 73.8779 119.054C73.8779 119.685 73.8779 120.334 73.8779 120.993C73.8779 121.127 73.7634 121.237 73.6235 121.237H67.6934C67.5544 121.237 67.438 121.127 67.438 120.992V119.054C67.438 118.92 67.5544 118.81 67.6934 118.81Z" fill="white"/>
    <path d="M67.6934 121.543H73.6235C73.7634 121.543 73.8779 121.653 73.8779 121.788C73.8779 122.429 73.8779 123.076 73.8779 123.725C73.8779 129.464 73.8779 135.363 73.8779 137.78C73.8779 141.942 72.3466 143.595 70.6906 143.595C69.0337 143.595 68.9049 142.982 67.438 142.982V123.725V121.788C67.438 121.653 67.5544 121.543 67.6934 121.543Z" fill="white"/>
    <path d="M67.6934 118.81C67.5544 118.81 67.438 118.92 67.438 119.054V118.257C67.438 118.394 67.5544 118.503 67.6934 118.503H73.6235V118.81H67.6934Z" fill="white"/>
    <path d="M67.6934 121.543C67.5544 121.543 67.438 121.653 67.438 121.788V120.992C67.438 121.127 67.5544 121.237 67.6934 121.237H73.6235V121.543H67.6934Z" fill="white"/>
    <path d="M67.6934 116.075C67.5544 116.075 67.438 116.186 67.438 116.321V115.523C67.438 115.659 67.5544 115.769 67.6934 115.769H73.6235V116.075H67.6934Z" fill="white"/>
    <path d="M61 112.745C61 112.952 61 113.17 61 113.396C61 113.988 61 114.639 61 115.335C61 115.469 61.1154 115.579 61.2544 115.579V115.885C61.1154 115.885 61 115.995 61 116.131C61 116.749 61 117.398 61 118.068C61 118.204 61.1154 118.313 61.2544 118.313V118.62C61.1154 118.62 61 118.73 61 118.864C61 119.495 61 120.144 61 120.803C61 120.937 61.1154 121.047 61.2544 121.047V121.353C61.1154 121.353 61 121.463 61 121.598C61 122.239 61 122.886 61 123.535C61 129.273 61 135.173 61 137.59C61 141.752 62.5303 143.405 64.1883 143.405C65.8463 143.405 65.9729 142.792 67.4378 142.792C68.9048 142.792 69.0335 143.405 70.6905 143.405C72.3464 143.405 73.8777 141.752 73.8777 137.59C73.8777 135.173 73.8777 129.273 73.8777 123.535C73.8777 122.886 73.8777 122.239 73.8777 121.598C73.8777 121.463 73.7633 121.353 73.6233 121.353V121.047C73.7633 121.047 73.8777 120.937 73.8777 120.803C73.8777 120.144 73.8777 119.495 73.8777 118.864C73.8777 118.73 73.7633 118.62 73.6233 118.62V118.313C73.7633 118.313 73.8777 118.204 73.8777 118.068C73.8777 117.398 73.8777 116.749 73.8777 116.131C73.8777 115.995 73.7633 115.885 73.6233 115.885V115.579C73.7633 115.579 73.8777 115.469 73.8777 115.335C73.8777 114.639 73.8777 113.988 73.8777 113.396C73.8777 113.17 73.8777 112.952 73.8777 112.745C73.8777 112.238 73.8276 111.622 73.6734 110.96H61.2053C61.0511 111.622 61 112.238 61 112.745Z" fill="#87E3FF"/>
    <path d="M72.6273 122.794C72.7233 124.491 72.7693 126.187 72.8071 127.885C72.8459 129.581 72.8428 131.279 72.8622 132.976C72.8428 134.674 72.849 136.369 72.805 138.07C72.7632 138.929 72.66 139.79 72.3944 140.616C72.2524 141.024 72.0705 141.426 71.7998 141.769C71.5373 142.109 71.1256 142.38 70.6904 142.344C71.1256 142.325 71.4739 142.032 71.6997 141.695C71.9296 141.349 72.0705 140.953 72.1747 140.55C72.3862 139.744 72.4475 138.9 72.4444 138.066L72.3933 132.976C72.4117 131.279 72.4087 129.581 72.4485 127.885C72.4863 126.187 72.5323 124.491 72.6273 122.794Z" fill="white"/>
    <path d="M68.8489 106.387C68.8969 106.787 69.1043 107.126 69.4077 107.352C69.6968 107.591 70.0564 107.769 70.3914 108C71.0677 108.446 71.6541 109.07 72.0678 109.778C72.4785 110.497 72.7165 111.31 72.7635 112.124C72.8074 112.945 72.7093 113.723 72.6276 114.519C72.5755 114.124 72.552 113.728 72.5142 113.331C72.4907 112.932 72.4734 112.545 72.4059 112.164C72.2782 111.403 72.0474 110.667 71.6622 110.013C71.2853 109.347 70.7704 108.783 70.1759 108.287C69.8848 108.033 69.5425 107.821 69.2514 107.517C68.9674 107.213 68.7876 106.786 68.8489 106.387Z" fill="white"/>
    <path d="M67.7513 101C67.5796 101 67.2977 101 67.1271 101H64.2657C64.0941 101 63.9531 101.14 63.9531 101.313V103.789C63.9531 103.96 64.0941 104.101 64.2657 104.101H67.1271C67.2977 104.101 67.5796 104.101 67.7513 104.101H70.6126C70.7843 104.101 70.9232 103.96 70.9232 103.789V101.313C70.9232 101.14 70.7843 101 70.6126 101H67.7513Z" fill="white"/>
    <path d="M67.4379 104.831H63.7256V104.363H67.4379V104.831Z" fill="#276B8A"/>
    <path d="M71.1524 104.831H67.438V104.363H71.1524V104.831Z" fill="#276B8A"/>
    <path d="M63.2456 115.715C64.6431 115.532 66.0416 115.49 67.4401 115.482C68.8366 115.489 70.2361 115.531 71.6336 115.715C70.2361 115.901 68.8366 115.943 67.4401 115.95C66.0416 115.942 64.6431 115.9 63.2456 115.715Z" fill="white"/>
    <path d="M63.2456 118.552C64.6431 118.368 66.0416 118.327 67.4401 118.318C68.8366 118.325 70.2361 118.367 71.6336 118.552C70.2361 118.738 68.8366 118.78 67.4401 118.787C66.0416 118.779 64.6431 118.737 63.2456 118.552Z" fill="white"/>
    <path d="M63.2456 121.389C64.6431 121.204 66.0416 121.162 67.4401 121.154C68.8366 121.161 70.2361 121.203 71.6336 121.389C70.2361 121.574 68.8366 121.616 67.4401 121.623C66.0416 121.615 64.6431 121.573 63.2456 121.389Z" fill="white"/>
    <path d="M70.6906 143.595C69.0337 143.595 68.9049 142.788 67.438 142.788V121.623C67.439 121.623 67.44 121.623 67.44 121.623C68.8365 121.616 70.236 121.574 71.6335 121.389C70.236 121.203 68.8365 121.161 67.44 121.154C67.44 121.154 67.439 121.154 67.438 121.154V118.787C67.439 118.787 67.44 118.787 67.44 118.787C68.8365 118.78 70.236 118.738 71.6335 118.552C70.236 118.367 68.8365 118.325 67.44 118.318C67.44 118.318 67.439 118.318 67.438 118.318V115.95C67.439 115.95 67.44 115.95 67.44 115.95C68.8365 115.943 70.236 115.901 71.6335 115.715C70.236 115.531 68.8365 115.489 67.44 115.482C67.44 115.482 67.439 115.482 67.438 115.482V111.15H72.1637C72.2689 111.479 72.3476 111.819 72.4058 112.164C72.4732 112.545 72.4906 112.932 72.5141 113.331C72.5519 113.728 72.5754 114.124 72.6275 114.519C72.7092 113.723 72.8073 112.945 72.7633 112.124C72.745 111.797 72.6949 111.47 72.6152 111.15H73.6736C73.8278 111.812 73.8779 112.428 73.8779 112.935C73.8779 113.142 73.8779 113.36 73.8779 113.586C73.8779 114.178 73.8779 114.829 73.8779 115.525C73.8779 115.659 73.7634 115.769 73.6235 115.769V116.075C73.7634 116.075 73.8779 116.185 73.8779 116.321C73.8779 116.939 73.8779 117.588 73.8779 118.258C73.8779 118.394 73.7634 118.503 73.6235 118.503V118.81C73.7634 118.81 73.8779 118.92 73.8779 119.054C73.8779 119.685 73.8779 120.334 73.8779 120.993C73.8779 121.127 73.7634 121.237 73.6235 121.237V121.543C73.7634 121.543 73.8779 121.653 73.8779 121.788C73.8779 122.429 73.8779 123.076 73.8779 123.725C73.8779 129.464 73.8779 135.363 73.8779 137.78C73.8779 141.942 72.3466 143.595 70.6906 143.595ZM72.6275 122.794C72.5325 124.491 72.4865 126.187 72.4487 127.885C72.4089 129.581 72.4119 131.279 72.3935 132.976L72.4446 138.066C72.4477 138.9 72.3864 139.744 72.1749 140.55C72.0707 140.953 71.9298 141.349 71.6999 141.695C71.4741 142.032 71.1258 142.325 70.6906 142.344C70.7162 142.347 70.7427 142.347 70.7682 142.347C71.1738 142.347 71.5528 142.089 71.8 141.769C72.0707 141.426 72.2526 141.024 72.3946 140.616C72.6602 139.79 72.7633 138.929 72.8052 138.07C72.8492 136.369 72.843 134.674 72.8624 132.976C72.843 131.279 72.8461 129.581 72.8073 127.885C72.7695 126.187 72.7235 124.491 72.6275 122.794Z" fill="#3F9AC4"/>
    <path d="M70.7681 142.347C70.7425 142.347 70.716 142.347 70.6904 142.344C71.1256 142.325 71.4739 142.032 71.6997 141.695C71.9296 141.349 72.0705 140.953 72.1747 140.55C72.3862 139.744 72.4475 138.9 72.4444 138.066L72.3933 132.976C72.4117 131.279 72.4087 129.581 72.4485 127.885C72.4863 126.187 72.5323 124.491 72.6273 122.794C72.7233 124.491 72.7693 126.187 72.8071 127.885C72.8459 129.581 72.8428 131.279 72.8622 132.976C72.8428 134.674 72.849 136.369 72.805 138.07C72.7632 138.929 72.66 139.79 72.3944 140.616C72.2524 141.024 72.0705 141.426 71.7998 141.769C71.5526 142.089 71.1736 142.347 70.7681 142.347Z" fill="#E2FAFA"/>
    <path d="M72.6274 114.519C72.5753 114.124 72.5518 113.728 72.514 113.331C72.4905 112.932 72.4731 112.545 72.4057 112.164C72.3475 111.819 72.2688 111.479 72.1636 111.15H72.6151C72.6948 111.47 72.7448 111.797 72.7632 112.124C72.8072 112.945 72.7091 113.723 72.6274 114.519Z" fill="#E2FAFA"/>
    <path d="M67.44 115.95C67.44 115.95 67.439 115.95 67.438 115.95V115.482C67.439 115.482 67.44 115.482 67.44 115.482C68.8365 115.489 70.236 115.531 71.6335 115.715C70.236 115.901 68.8365 115.943 67.44 115.95Z" fill="#E2FAFA"/>
    <path d="M67.44 118.787C67.44 118.787 67.439 118.787 67.438 118.787V118.318C67.439 118.318 67.44 118.318 67.44 118.318C68.8365 118.325 70.236 118.367 71.6335 118.552C70.236 118.738 68.8365 118.78 67.44 118.787Z" fill="#E2FAFA"/>
    <path d="M67.44 121.623C67.44 121.623 67.439 121.623 67.438 121.623V121.154C67.439 121.154 67.44 121.154 67.44 121.154C68.8365 121.161 70.236 121.203 71.6335 121.389C70.236 121.574 68.8365 121.616 67.44 121.623Z" fill="#E2FAFA"/>
    <path d="M74.5857 93.3108C74.5857 93.3108 74.5857 96.1108 74.5857 96.3866C74.5857 96.6614 73.5181 97.0742 72.3699 98.6044C71.2227 100.134 71 101.805 71 102.935C71 103.142 71 103.36 71 103.586C71 104.178 71 104.829 71 105.525C71 105.659 71.1154 105.769 71.2544 105.769H77.1824C77.3244 105.769 77.4378 105.659 77.4378 105.523V103.587V93.3108H74.5857Z" fill="#D6FEFD"/>
    <path d="M77.1824 106.075H71.2544C71.1154 106.075 71 106.185 71 106.321C71 106.939 71 107.588 71 108.258C71 108.394 71.1154 108.503 71.2544 108.503H77.1824C77.3244 108.503 77.4378 108.394 77.4378 108.257V106.321C77.4378 106.186 77.3244 106.075 77.1824 106.075Z" fill="white"/>
    <path d="M77.1824 108.81H71.2544C71.1154 108.81 71 108.92 71 109.054C71 109.685 71 110.334 71 110.993C71 111.127 71.1154 111.237 71.2544 111.237H77.1824C77.3244 111.237 77.4378 111.127 77.4378 110.992V109.054C77.4378 108.92 77.3244 108.81 77.1824 108.81Z" fill="white"/>
    <path d="M77.1824 111.543H71.2544C71.1154 111.543 71 111.653 71 111.788C71 112.429 71 113.076 71 113.725C71 119.464 71 125.363 71 127.78C71 131.942 72.5303 133.595 74.1883 133.595C75.8463 133.595 75.9729 132.982 77.4378 132.982V113.725V111.788C77.4378 111.653 77.3244 111.543 77.1824 111.543Z" fill="white"/>
    <path d="M77.1825 108.81C77.3245 108.81 77.4379 108.92 77.4379 109.054V108.257C77.4379 108.394 77.3245 108.503 77.1825 108.503H71.2544V108.81H77.1825Z" fill="white"/>
    <path d="M77.1825 111.543C77.3245 111.543 77.4379 111.653 77.4379 111.788V110.992C77.4379 111.127 77.3245 111.237 77.1825 111.237H71.2544V111.543H77.1825Z" fill="white"/>
    <path d="M77.1825 106.075C77.3245 106.075 77.4379 106.186 77.4379 106.321V105.523C77.4379 105.659 77.3245 105.769 77.1825 105.769H71.2544V106.075H77.1825Z" fill="white"/>
    <path d="M80.2912 93.3108C80.2912 93.3108 80.2912 96.1108 80.2912 96.3866C80.2912 96.6614 81.3587 97.0742 82.508 98.6044C83.6541 100.134 83.8779 101.805 83.8779 102.935C83.8779 103.142 83.8779 103.36 83.8779 103.586C83.8779 104.178 83.8779 104.829 83.8779 105.525C83.8779 105.659 83.7634 105.769 83.6235 105.769H77.6934C77.5544 105.769 77.438 105.659 77.438 105.523V103.587V93.3108H80.2912Z" fill="#BDEEED"/>
    <path d="M77.6934 106.075H83.6235C83.7634 106.075 83.8779 106.185 83.8779 106.321C83.8779 106.939 83.8779 107.588 83.8779 108.258C83.8779 108.394 83.7634 108.503 83.6235 108.503H77.6934C77.5544 108.503 77.438 108.394 77.438 108.257V106.321C77.438 106.186 77.5544 106.075 77.6934 106.075Z" fill="white"/>
    <path d="M77.6934 108.81H83.6235C83.7634 108.81 83.8779 108.92 83.8779 109.054C83.8779 109.685 83.8779 110.334 83.8779 110.993C83.8779 111.127 83.7634 111.237 83.6235 111.237H77.6934C77.5544 111.237 77.438 111.127 77.438 110.992V109.054C77.438 108.92 77.5544 108.81 77.6934 108.81Z" fill="white"/>
    <path d="M77.6934 111.543H83.6235C83.7634 111.543 83.8779 111.653 83.8779 111.788C83.8779 112.429 83.8779 113.076 83.8779 113.725C83.8779 119.464 83.8779 125.363 83.8779 127.78C83.8779 131.942 82.3466 133.595 80.6906 133.595C79.0337 133.595 78.9049 132.982 77.438 132.982V113.725V111.788C77.438 111.653 77.5544 111.543 77.6934 111.543Z" fill="white"/>
    <path d="M77.6934 108.81C77.5544 108.81 77.438 108.92 77.438 109.054V108.257C77.438 108.394 77.5544 108.503 77.6934 108.503H83.6235V108.81H77.6934Z" fill="white"/>
    <path d="M77.6934 111.543C77.5544 111.543 77.438 111.653 77.438 111.788V110.992C77.438 111.127 77.5544 111.237 77.6934 111.237H83.6235V111.543H77.6934Z" fill="white"/>
    <path d="M77.6934 106.075C77.5544 106.075 77.438 106.186 77.438 106.321V105.523C77.438 105.659 77.5544 105.769 77.6934 105.769H83.6235V106.075H77.6934Z" fill="white"/>
    <path d="M71 102.745C71 102.952 71 103.17 71 103.396C71 103.988 71 104.639 71 105.335C71 105.469 71.1154 105.579 71.2544 105.579V105.885C71.1154 105.885 71 105.995 71 106.131C71 106.749 71 107.398 71 108.068C71 108.204 71.1154 108.313 71.2544 108.313V108.62C71.1154 108.62 71 108.73 71 108.864C71 109.495 71 110.144 71 110.803C71 110.937 71.1154 111.047 71.2544 111.047V111.353C71.1154 111.353 71 111.463 71 111.598C71 112.239 71 112.886 71 113.535C71 119.273 71 125.173 71 127.59C71 131.752 72.5303 133.405 74.1883 133.405C75.8463 133.405 75.9729 132.792 77.4378 132.792C78.9048 132.792 79.0335 133.405 80.6905 133.405C82.3464 133.405 83.8777 131.752 83.8777 127.59C83.8777 125.173 83.8777 119.273 83.8777 113.535C83.8777 112.886 83.8777 112.239 83.8777 111.598C83.8777 111.463 83.7633 111.353 83.6233 111.353V111.047C83.7633 111.047 83.8777 110.937 83.8777 110.803C83.8777 110.144 83.8777 109.495 83.8777 108.864C83.8777 108.73 83.7633 108.62 83.6233 108.62V108.313C83.7633 108.313 83.8777 108.204 83.8777 108.068C83.8777 107.398 83.8777 106.749 83.8777 106.131C83.8777 105.995 83.7633 105.885 83.6233 105.885V105.579C83.7633 105.579 83.8777 105.469 83.8777 105.335C83.8777 104.639 83.8777 103.988 83.8777 103.396C83.8777 103.17 83.8777 102.952 83.8777 102.745C83.8777 102.238 83.8276 101.622 83.6734 100.96H71.2053C71.0511 101.622 71 102.238 71 102.745Z" fill="#87E3FF"/>
    <path d="M82.6273 112.794C82.7233 114.491 82.7693 116.187 82.8071 117.885C82.8459 119.581 82.8428 121.279 82.8622 122.976C82.8428 124.674 82.849 126.369 82.805 128.07C82.7632 128.929 82.66 129.79 82.3944 130.616C82.2524 131.024 82.0705 131.426 81.7998 131.769C81.5373 132.109 81.1256 132.38 80.6904 132.344C81.1256 132.325 81.4739 132.032 81.6997 131.695C81.9296 131.349 82.0705 130.953 82.1747 130.55C82.3862 129.744 82.4475 128.9 82.4444 128.066L82.3933 122.976C82.4117 121.279 82.4087 119.581 82.4485 117.885C82.4863 116.187 82.5323 114.491 82.6273 112.794Z" fill="white"/>
    <path d="M78.8489 96.3866C78.8969 96.7871 79.1043 97.1263 79.4077 97.352C79.6968 97.5911 80.0564 97.7688 80.3914 97.9997C81.0677 98.4461 81.6541 99.0703 82.0678 99.7782C82.4785 100.497 82.7165 101.31 82.7635 102.124C82.8074 102.945 82.7093 103.723 82.6276 104.519C82.5755 104.124 82.552 103.728 82.5142 103.331C82.4907 102.932 82.4734 102.545 82.4059 102.164C82.2782 101.403 82.0474 100.667 81.6622 100.013C81.2853 99.3471 80.7704 98.7832 80.1759 98.2867C79.8848 98.0334 79.5425 97.8209 79.2514 97.5175C78.9674 97.2131 78.7876 96.7861 78.8489 96.3866Z" fill="white"/>
    <path d="M77.7513 91C77.5796 91 77.2977 91 77.1271 91H74.2657C74.0941 91 73.9531 91.14 73.9531 91.3126V93.7888C73.9531 93.9605 74.0941 94.1014 74.2657 94.1014H77.1271C77.2977 94.1014 77.5796 94.1014 77.7513 94.1014H80.6126C80.7843 94.1014 80.9232 93.9605 80.9232 93.7888V91.3126C80.9232 91.14 80.7843 91 80.6126 91H77.7513Z" fill="white"/>
    <path d="M77.4379 94.8308H73.7256V94.363H77.4379V94.8308Z" fill="#276B8A"/>
    <path d="M81.1524 94.8308H77.438V94.363H81.1524V94.8308Z" fill="#276B8A"/>
    <path d="M73.2456 105.715C74.6431 105.532 76.0416 105.49 77.4401 105.482C78.8366 105.489 80.2361 105.531 81.6336 105.715C80.2361 105.901 78.8366 105.943 77.4401 105.95C76.0416 105.942 74.6431 105.9 73.2456 105.715Z" fill="white"/>
    <path d="M73.2456 108.552C74.6431 108.368 76.0416 108.327 77.4401 108.318C78.8366 108.325 80.2361 108.367 81.6336 108.552C80.2361 108.738 78.8366 108.78 77.4401 108.787C76.0416 108.779 74.6431 108.737 73.2456 108.552Z" fill="white"/>
    <path d="M73.2456 111.389C74.6431 111.204 76.0416 111.162 77.4401 111.154C78.8366 111.161 80.2361 111.203 81.6336 111.389C80.2361 111.574 78.8366 111.616 77.4401 111.623C76.0416 111.615 74.6431 111.573 73.2456 111.389Z" fill="white"/>
    <path d="M80.6906 133.595C79.0337 133.595 78.9049 132.788 77.438 132.788V111.623C77.439 111.623 77.44 111.623 77.44 111.623C78.8365 111.616 80.236 111.574 81.6335 111.389C80.236 111.203 78.8365 111.161 77.44 111.154C77.44 111.154 77.439 111.154 77.438 111.154V108.787C77.439 108.787 77.44 108.787 77.44 108.787C78.8365 108.78 80.236 108.738 81.6335 108.552C80.236 108.367 78.8365 108.325 77.44 108.318C77.44 108.318 77.439 108.318 77.438 108.318V105.95C77.439 105.95 77.44 105.95 77.44 105.95C78.8365 105.943 80.236 105.901 81.6335 105.715C80.236 105.531 78.8365 105.489 77.44 105.482C77.44 105.482 77.439 105.482 77.438 105.482V101.15H82.1637C82.2689 101.479 82.3476 101.819 82.4058 102.164C82.4732 102.545 82.4906 102.932 82.5141 103.331C82.5519 103.728 82.5754 104.124 82.6275 104.519C82.7092 103.723 82.8073 102.945 82.7633 102.124C82.745 101.797 82.6949 101.47 82.6152 101.15H83.6736C83.8278 101.812 83.8779 102.428 83.8779 102.935C83.8779 103.142 83.8779 103.36 83.8779 103.586C83.8779 104.178 83.8779 104.829 83.8779 105.525C83.8779 105.659 83.7634 105.769 83.6235 105.769V106.075C83.7634 106.075 83.8779 106.185 83.8779 106.321C83.8779 106.939 83.8779 107.588 83.8779 108.258C83.8779 108.394 83.7634 108.503 83.6235 108.503V108.81C83.7634 108.81 83.8779 108.92 83.8779 109.054C83.8779 109.685 83.8779 110.334 83.8779 110.993C83.8779 111.127 83.7634 111.237 83.6235 111.237V111.543C83.7634 111.543 83.8779 111.653 83.8779 111.788C83.8779 112.429 83.8779 113.076 83.8779 113.725C83.8779 119.464 83.8779 125.363 83.8779 127.78C83.8779 131.942 82.3466 133.595 80.6906 133.595ZM82.6275 112.794C82.5325 114.491 82.4865 116.187 82.4487 117.885C82.4089 119.581 82.4119 121.279 82.3935 122.976L82.4446 128.066C82.4477 128.9 82.3864 129.744 82.1749 130.55C82.0707 130.953 81.9298 131.349 81.6999 131.695C81.4741 132.032 81.1258 132.325 80.6906 132.344C80.7162 132.347 80.7427 132.347 80.7682 132.347C81.1738 132.347 81.5528 132.089 81.8 131.769C82.0707 131.426 82.2526 131.024 82.3946 130.616C82.6602 129.79 82.7633 128.929 82.8052 128.07C82.8492 126.369 82.843 124.674 82.8624 122.976C82.843 121.279 82.8461 119.581 82.8073 117.885C82.7695 116.187 82.7235 114.491 82.6275 112.794Z" fill="#3F9AC4"/>
    <path d="M80.7681 132.347C80.7425 132.347 80.716 132.347 80.6904 132.344C81.1256 132.325 81.4739 132.032 81.6997 131.695C81.9296 131.349 82.0705 130.953 82.1747 130.55C82.3862 129.744 82.4475 128.9 82.4444 128.066L82.3933 122.976C82.4117 121.279 82.4087 119.581 82.4485 117.885C82.4863 116.187 82.5323 114.491 82.6273 112.794C82.7233 114.491 82.7693 116.187 82.8071 117.885C82.8459 119.581 82.8428 121.279 82.8622 122.976C82.8428 124.674 82.849 126.369 82.805 128.07C82.7632 128.929 82.66 129.79 82.3944 130.616C82.2524 131.024 82.0705 131.426 81.7998 131.769C81.5526 132.089 81.1736 132.347 80.7681 132.347Z" fill="#E2FAFA"/>
    <path d="M82.6274 104.519C82.5753 104.124 82.5518 103.728 82.514 103.331C82.4905 102.932 82.4731 102.545 82.4057 102.164C82.3475 101.819 82.2688 101.479 82.1636 101.15H82.6151C82.6948 101.47 82.7448 101.797 82.7632 102.124C82.8072 102.945 82.7091 103.723 82.6274 104.519Z" fill="#E2FAFA"/>
    <path d="M77.44 105.95C77.44 105.95 77.439 105.95 77.438 105.95V105.482C77.439 105.482 77.44 105.482 77.44 105.482C78.8365 105.489 80.236 105.531 81.6335 105.715C80.236 105.901 78.8365 105.943 77.44 105.95Z" fill="#E2FAFA"/>
    <path d="M77.44 108.787C77.44 108.787 77.439 108.787 77.438 108.787V108.318C77.439 108.318 77.44 108.318 77.44 108.318C78.8365 108.325 80.236 108.367 81.6335 108.552C80.236 108.738 78.8365 108.78 77.44 108.787Z" fill="#E2FAFA"/>
    <path d="M77.44 111.623C77.44 111.623 77.439 111.623 77.438 111.623V111.154C77.439 111.154 77.44 111.154 77.44 111.154C78.8365 111.161 80.236 111.203 81.6335 111.389C80.236 111.574 78.8365 111.616 77.44 111.623Z" fill="#E2FAFA"/>
    <path d="M90.5857 95.3108C90.5857 95.3108 90.5857 98.1108 90.5857 98.3866C90.5857 98.6614 89.5181 99.0742 88.3699 100.604C87.2227 102.134 87 103.805 87 104.935C87 105.142 87 105.36 87 105.586C87 106.178 87 106.829 87 107.525C87 107.659 87.1154 107.769 87.2544 107.769H93.1824C93.3244 107.769 93.4378 107.659 93.4378 107.523V105.587V95.3108H90.5857Z" fill="#D6FEFD"/>
    <path d="M93.1824 108.075H87.2544C87.1154 108.075 87 108.185 87 108.321C87 108.939 87 109.588 87 110.258C87 110.394 87.1154 110.503 87.2544 110.503H93.1824C93.3244 110.503 93.4378 110.394 93.4378 110.257V108.321C93.4378 108.186 93.3244 108.075 93.1824 108.075Z" fill="white"/>
    <path d="M93.1824 110.81H87.2544C87.1154 110.81 87 110.92 87 111.054C87 111.685 87 112.334 87 112.993C87 113.127 87.1154 113.237 87.2544 113.237H93.1824C93.3244 113.237 93.4378 113.127 93.4378 112.992V111.054C93.4378 110.92 93.3244 110.81 93.1824 110.81Z" fill="white"/>
    <path d="M93.1824 113.543H87.2544C87.1154 113.543 87 113.653 87 113.788C87 114.429 87 115.076 87 115.725C87 121.464 87 127.363 87 129.78C87 133.942 88.5303 135.595 90.1883 135.595C91.8463 135.595 91.9729 134.982 93.4378 134.982V115.725V113.788C93.4378 113.653 93.3244 113.543 93.1824 113.543Z" fill="white"/>
    <path d="M93.1825 110.81C93.3245 110.81 93.4379 110.92 93.4379 111.054V110.257C93.4379 110.394 93.3245 110.503 93.1825 110.503H87.2544V110.81H93.1825Z" fill="white"/>
    <path d="M93.1825 113.543C93.3245 113.543 93.4379 113.653 93.4379 113.788V112.992C93.4379 113.127 93.3245 113.237 93.1825 113.237H87.2544V113.543H93.1825Z" fill="white"/>
    <path d="M93.1825 108.075C93.3245 108.075 93.4379 108.186 93.4379 108.321V107.523C93.4379 107.659 93.3245 107.769 93.1825 107.769H87.2544V108.075H93.1825Z" fill="white"/>
    <path d="M96.2912 95.3108C96.2912 95.3108 96.2912 98.1108 96.2912 98.3866C96.2912 98.6614 97.3587 99.0742 98.508 100.604C99.6541 102.134 99.8779 103.805 99.8779 104.935C99.8779 105.142 99.8779 105.36 99.8779 105.586C99.8779 106.178 99.8779 106.829 99.8779 107.525C99.8779 107.659 99.7634 107.769 99.6235 107.769H93.6934C93.5544 107.769 93.438 107.659 93.438 107.523V105.587V95.3108H96.2912Z" fill="#BDEEED"/>
    <path d="M93.6934 108.075H99.6235C99.7634 108.075 99.8779 108.185 99.8779 108.321C99.8779 108.939 99.8779 109.588 99.8779 110.258C99.8779 110.394 99.7634 110.503 99.6235 110.503H93.6934C93.5544 110.503 93.438 110.394 93.438 110.257V108.321C93.438 108.186 93.5544 108.075 93.6934 108.075Z" fill="white"/>
    <path d="M93.6934 110.81H99.6235C99.7634 110.81 99.8779 110.92 99.8779 111.054C99.8779 111.685 99.8779 112.334 99.8779 112.993C99.8779 113.127 99.7634 113.237 99.6235 113.237H93.6934C93.5544 113.237 93.438 113.127 93.438 112.992V111.054C93.438 110.92 93.5544 110.81 93.6934 110.81Z" fill="white"/>
    <path d="M93.6934 113.543H99.6235C99.7634 113.543 99.8779 113.653 99.8779 113.788C99.8779 114.429 99.8779 115.076 99.8779 115.725C99.8779 121.464 99.8779 127.363 99.8779 129.78C99.8779 133.942 98.3466 135.595 96.6906 135.595C95.0337 135.595 94.9049 134.982 93.438 134.982V115.725V113.788C93.438 113.653 93.5544 113.543 93.6934 113.543Z" fill="white"/>
    <path d="M93.6934 110.81C93.5544 110.81 93.438 110.92 93.438 111.054V110.257C93.438 110.394 93.5544 110.503 93.6934 110.503H99.6235V110.81H93.6934Z" fill="white"/>
    <path d="M93.6934 113.543C93.5544 113.543 93.438 113.653 93.438 113.788V112.992C93.438 113.127 93.5544 113.237 93.6934 113.237H99.6235V113.543H93.6934Z" fill="white"/>
    <path d="M93.6934 108.075C93.5544 108.075 93.438 108.186 93.438 108.321V107.523C93.438 107.659 93.5544 107.769 93.6934 107.769H99.6235V108.075H93.6934Z" fill="white"/>
    <path d="M87 104.745C87 104.952 87 105.17 87 105.396C87 105.988 87 106.639 87 107.335C87 107.469 87.1154 107.579 87.2544 107.579V107.885C87.1154 107.885 87 107.995 87 108.131C87 108.749 87 109.398 87 110.068C87 110.204 87.1154 110.313 87.2544 110.313V110.62C87.1154 110.62 87 110.73 87 110.864C87 111.495 87 112.144 87 112.803C87 112.937 87.1154 113.047 87.2544 113.047V113.353C87.1154 113.353 87 113.463 87 113.598C87 114.239 87 114.886 87 115.535C87 121.273 87 127.173 87 129.59C87 133.752 88.5303 135.405 90.1883 135.405C91.8463 135.405 91.9729 134.792 93.4378 134.792C94.9048 134.792 95.0335 135.405 96.6905 135.405C98.3464 135.405 99.8777 133.752 99.8777 129.59C99.8777 127.173 99.8777 121.273 99.8777 115.535C99.8777 114.886 99.8777 114.239 99.8777 113.598C99.8777 113.463 99.7633 113.353 99.6233 113.353V113.047C99.7633 113.047 99.8777 112.937 99.8777 112.803C99.8777 112.144 99.8777 111.495 99.8777 110.864C99.8777 110.73 99.7633 110.62 99.6233 110.62V110.313C99.7633 110.313 99.8777 110.204 99.8777 110.068C99.8777 109.398 99.8777 108.749 99.8777 108.131C99.8777 107.995 99.7633 107.885 99.6233 107.885V107.579C99.7633 107.579 99.8777 107.469 99.8777 107.335C99.8777 106.639 99.8777 105.988 99.8777 105.396C99.8777 105.17 99.8777 104.952 99.8777 104.745C99.8777 104.238 99.8276 103.622 99.6734 102.96H87.2053C87.0511 103.622 87 104.238 87 104.745Z" fill="#87E3FF"/>
    <path d="M94.8489 98.3866C94.8969 98.7871 95.1043 99.1263 95.4077 99.352C95.6968 99.5911 96.0564 99.7688 96.3914 99.9997C97.0677 100.446 97.6541 101.07 98.0678 101.778C98.4785 102.497 98.7165 103.31 98.7635 104.124C98.8074 104.945 98.7093 105.723 98.6276 106.519C98.5755 106.124 98.552 105.728 98.5142 105.331C98.4907 104.932 98.4734 104.545 98.4059 104.164C98.2782 103.403 98.0474 102.667 97.6622 102.013C97.2853 101.347 96.7704 100.783 96.1759 100.287C95.8848 100.033 95.5425 99.8209 95.2514 99.5175C94.9674 99.2131 94.7876 98.7861 94.8489 98.3866Z" fill="white"/>
    <path d="M93.7513 93C93.5796 93 93.2977 93 93.1271 93H90.2657C90.0941 93 89.9531 93.14 89.9531 93.3126V95.7888C89.9531 95.9605 90.0941 96.1014 90.2657 96.1014H93.1271C93.2977 96.1014 93.5796 96.1014 93.7513 96.1014H96.6126C96.7843 96.1014 96.9232 95.9605 96.9232 95.7888V93.3126C96.9232 93.14 96.7843 93 96.6126 93H93.7513Z" fill="white"/>
    <path d="M93.4379 96.8308H89.7256V96.363H93.4379V96.8308Z" fill="#276B8A"/>
    <path d="M97.1524 96.8308H93.438V96.363H97.1524V96.8308Z" fill="#276B8A"/>
    <path d="M89.2456 107.715C90.6431 107.532 92.0416 107.49 93.4401 107.482C94.8366 107.489 96.2361 107.531 97.6336 107.715C96.2361 107.901 94.8366 107.943 93.4401 107.95C92.0416 107.942 90.6431 107.9 89.2456 107.715Z" fill="white"/>
    <path d="M89.2456 110.552C90.6431 110.368 92.0416 110.327 93.4401 110.318C94.8366 110.325 96.2361 110.367 97.6336 110.552C96.2361 110.738 94.8366 110.78 93.4401 110.787C92.0416 110.779 90.6431 110.737 89.2456 110.552Z" fill="white"/>
    <path d="M89.2456 113.389C90.6431 113.204 92.0416 113.162 93.4401 113.154C94.8366 113.161 96.2361 113.203 97.6336 113.389C96.2361 113.574 94.8366 113.616 93.4401 113.623C92.0416 113.615 90.6431 113.573 89.2456 113.389Z" fill="white"/>
    <path d="M96.6906 135.595C95.0337 135.595 94.9049 134.788 93.438 134.788V113.623C93.439 113.623 93.44 113.623 93.44 113.623C94.8365 113.616 96.236 113.574 97.6335 113.389C96.236 113.203 94.8365 113.161 93.44 113.154C93.44 113.154 93.439 113.154 93.438 113.154V110.787C93.439 110.787 93.44 110.787 93.44 110.787C94.8365 110.78 96.236 110.738 97.6335 110.552C96.236 110.367 94.8365 110.325 93.44 110.318C93.44 110.318 93.439 110.318 93.438 110.318V107.95C93.439 107.95 93.44 107.95 93.44 107.95C94.8365 107.943 96.236 107.901 97.6335 107.715C96.236 107.531 94.8365 107.489 93.44 107.482C93.44 107.482 93.439 107.482 93.438 107.482V103.15H98.1637C98.2689 103.479 98.3476 103.819 98.4058 104.164C98.4732 104.545 98.4906 104.932 98.5141 105.331C98.5519 105.728 98.5754 106.124 98.6275 106.519C98.7092 105.723 98.8073 104.945 98.7633 104.124C98.745 103.797 98.6949 103.47 98.6152 103.15H99.6736C99.8278 103.812 99.8779 104.428 99.8779 104.935C99.8779 105.142 99.8779 105.36 99.8779 105.586C99.8779 106.178 99.8779 106.829 99.8779 107.525C99.8779 107.659 99.7634 107.769 99.6235 107.769V108.075C99.7634 108.075 99.8779 108.185 99.8779 108.321C99.8779 108.939 99.8779 109.588 99.8779 110.258C99.8779 110.394 99.7634 110.503 99.6235 110.503V110.81C99.7634 110.81 99.8779 110.92 99.8779 111.054C99.8779 111.685 99.8779 112.334 99.8779 112.993C99.8779 113.127 99.7634 113.237 99.6235 113.237V113.543C99.7634 113.543 99.8779 113.653 99.8779 113.788C99.8779 114.429 99.8779 115.076 99.8779 115.725C99.8779 121.464 99.8779 127.363 99.8779 129.78C99.8779 133.942 98.3466 135.595 96.6906 135.595ZM98.6275 114.794C98.5325 116.491 98.4865 118.187 98.4487 119.885C98.4089 121.581 98.4119 123.279 98.3935 124.976L98.4446 130.066C98.4477 130.9 98.3864 131.744 98.1749 132.55C98.0707 132.953 97.9298 133.349 97.6999 133.695C97.4741 134.032 97.1258 134.325 96.6906 134.344C96.7162 134.347 96.7427 134.347 96.7682 134.347C97.1738 134.347 97.5528 134.089 97.8 133.769C98.0707 133.426 98.2526 133.024 98.3946 132.616C98.6602 131.79 98.7633 130.929 98.8052 130.07C98.8492 128.369 98.843 126.674 98.8624 124.976C98.843 123.279 98.8461 121.581 98.8073 119.885C98.7695 118.187 98.7235 116.491 98.6275 114.794Z" fill="#3F9AC4"/>
    <path d="M93.44 107.95C93.44 107.95 93.439 107.95 93.438 107.95V107.482C93.439 107.482 93.44 107.482 93.44 107.482C94.8365 107.489 96.236 107.531 97.6335 107.715C96.236 107.901 94.8365 107.943 93.44 107.95Z" fill="#E2FAFA"/>
    <path d="M93.44 110.787C93.44 110.787 93.439 110.787 93.438 110.787V110.318C93.439 110.318 93.44 110.318 93.44 110.318C94.8365 110.325 96.236 110.367 97.6335 110.552C96.236 110.738 94.8365 110.78 93.44 110.787Z" fill="#E2FAFA"/>
    <path d="M93.44 113.623C93.44 113.623 93.439 113.623 93.438 113.623V113.154C93.439 113.154 93.44 113.154 93.44 113.154C94.8365 113.161 96.236 113.203 97.6335 113.389C96.236 113.574 94.8365 113.616 93.44 113.623Z" fill="#E2FAFA"/>
    <path d="M84.5857 103.311C84.5857 103.311 84.5857 106.111 84.5857 106.387C84.5857 106.661 83.5181 107.074 82.3699 108.604C81.2227 110.134 81 111.805 81 112.935C81 113.142 81 113.36 81 113.586C81 114.178 81 114.829 81 115.525C81 115.659 81.1154 115.769 81.2544 115.769H87.1824C87.3244 115.769 87.4378 115.659 87.4378 115.523V113.587V103.311H84.5857Z" fill="#D6FEFD"/>
    <path d="M87.1824 116.075H81.2544C81.1154 116.075 81 116.185 81 116.321C81 116.939 81 117.588 81 118.258C81 118.394 81.1154 118.503 81.2544 118.503H87.1824C87.3244 118.503 87.4378 118.394 87.4378 118.257V116.321C87.4378 116.186 87.3244 116.075 87.1824 116.075Z" fill="white"/>
    <path d="M87.1824 118.81H81.2544C81.1154 118.81 81 118.92 81 119.054C81 119.685 81 120.334 81 120.993C81 121.127 81.1154 121.237 81.2544 121.237H87.1824C87.3244 121.237 87.4378 121.127 87.4378 120.992V119.054C87.4378 118.92 87.3244 118.81 87.1824 118.81Z" fill="white"/>
    <path d="M87.1824 121.543H81.2544C81.1154 121.543 81 121.653 81 121.788C81 122.429 81 123.076 81 123.725C81 129.464 81 135.363 81 137.78C81 141.942 82.5303 143.595 84.1883 143.595C85.8463 143.595 85.9729 142.982 87.4378 142.982V123.725V121.788C87.4378 121.653 87.3244 121.543 87.1824 121.543Z" fill="white"/>
    <path d="M87.1825 118.81C87.3245 118.81 87.4379 118.92 87.4379 119.054V118.257C87.4379 118.394 87.3245 118.503 87.1825 118.503H81.2544V118.81H87.1825Z" fill="white"/>
    <path d="M87.1825 121.543C87.3245 121.543 87.4379 121.653 87.4379 121.788V120.992C87.4379 121.127 87.3245 121.237 87.1825 121.237H81.2544V121.543H87.1825Z" fill="white"/>
    <path d="M87.1825 116.075C87.3245 116.075 87.4379 116.186 87.4379 116.321V115.523C87.4379 115.659 87.3245 115.769 87.1825 115.769H81.2544V116.075H87.1825Z" fill="white"/>
    <path d="M90.2912 103.311C90.2912 103.311 90.2912 106.111 90.2912 106.387C90.2912 106.661 91.3587 107.074 92.508 108.604C93.6541 110.134 93.8779 111.805 93.8779 112.935C93.8779 113.142 93.8779 113.36 93.8779 113.586C93.8779 114.178 93.8779 114.829 93.8779 115.525C93.8779 115.659 93.7634 115.769 93.6235 115.769H87.6934C87.5544 115.769 87.438 115.659 87.438 115.523V113.587V103.311H90.2912Z" fill="#BDEEED"/>
    <path d="M87.6934 116.075H93.6235C93.7634 116.075 93.8779 116.185 93.8779 116.321C93.8779 116.939 93.8779 117.588 93.8779 118.258C93.8779 118.394 93.7634 118.503 93.6235 118.503H87.6934C87.5544 118.503 87.438 118.394 87.438 118.257V116.321C87.438 116.186 87.5544 116.075 87.6934 116.075Z" fill="white"/>
    <path d="M87.6934 118.81H93.6235C93.7634 118.81 93.8779 118.92 93.8779 119.054C93.8779 119.685 93.8779 120.334 93.8779 120.993C93.8779 121.127 93.7634 121.237 93.6235 121.237H87.6934C87.5544 121.237 87.438 121.127 87.438 120.992V119.054C87.438 118.92 87.5544 118.81 87.6934 118.81Z" fill="white"/>
    <path d="M87.6934 121.543H93.6235C93.7634 121.543 93.8779 121.653 93.8779 121.788C93.8779 122.429 93.8779 123.076 93.8779 123.725C93.8779 129.464 93.8779 135.363 93.8779 137.78C93.8779 141.942 92.3466 143.595 90.6906 143.595C89.0337 143.595 88.9049 142.982 87.438 142.982V123.725V121.788C87.438 121.653 87.5544 121.543 87.6934 121.543Z" fill="white"/>
    <path d="M87.6934 118.81C87.5544 118.81 87.438 118.92 87.438 119.054V118.257C87.438 118.394 87.5544 118.503 87.6934 118.503H93.6235V118.81H87.6934Z" fill="white"/>
    <path d="M87.6934 121.543C87.5544 121.543 87.438 121.653 87.438 121.788V120.992C87.438 121.127 87.5544 121.237 87.6934 121.237H93.6235V121.543H87.6934Z" fill="white"/>
    <path d="M87.6934 116.075C87.5544 116.075 87.438 116.186 87.438 116.321V115.523C87.438 115.659 87.5544 115.769 87.6934 115.769H93.6235V116.075H87.6934Z" fill="white"/>
    <path d="M81 112.745C81 112.952 81 113.17 81 113.396C81 113.988 81 114.639 81 115.335C81 115.469 81.1154 115.579 81.2544 115.579V115.885C81.1154 115.885 81 115.995 81 116.131C81 116.749 81 117.398 81 118.068C81 118.204 81.1154 118.313 81.2544 118.313V118.62C81.1154 118.62 81 118.73 81 118.864C81 119.495 81 120.144 81 120.803C81 120.937 81.1154 121.047 81.2544 121.047V121.353C81.1154 121.353 81 121.463 81 121.598C81 122.239 81 122.886 81 123.535C81 129.273 81 135.173 81 137.59C81 141.752 82.5303 143.405 84.1883 143.405C85.8463 143.405 85.9729 142.792 87.4378 142.792C88.9048 142.792 89.0335 143.405 90.6905 143.405C92.3464 143.405 93.8777 141.752 93.8777 137.59C93.8777 135.173 93.8777 129.273 93.8777 123.535C93.8777 122.886 93.8777 122.239 93.8777 121.598C93.8777 121.463 93.7633 121.353 93.6233 121.353V121.047C93.7633 121.047 93.8777 120.937 93.8777 120.803C93.8777 120.144 93.8777 119.495 93.8777 118.864C93.8777 118.73 93.7633 118.62 93.6233 118.62V118.313C93.7633 118.313 93.8777 118.204 93.8777 118.068C93.8777 117.398 93.8777 116.749 93.8777 116.131C93.8777 115.995 93.7633 115.885 93.6233 115.885V115.579C93.7633 115.579 93.8777 115.469 93.8777 115.335C93.8777 114.639 93.8777 113.988 93.8777 113.396C93.8777 113.17 93.8777 112.952 93.8777 112.745C93.8777 112.238 93.8276 111.622 93.6734 110.96H81.2053C81.0511 111.622 81 112.238 81 112.745Z" fill="#87E3FF"/>
    <path d="M92.6273 122.794C92.7233 124.491 92.7693 126.187 92.8071 127.885C92.8459 129.581 92.8428 131.279 92.8622 132.976C92.8428 134.674 92.849 136.369 92.805 138.07C92.7632 138.929 92.66 139.79 92.3944 140.616C92.2524 141.024 92.0705 141.426 91.7998 141.769C91.5373 142.109 91.1256 142.38 90.6904 142.344C91.1256 142.325 91.4739 142.032 91.6997 141.695C91.9296 141.349 92.0705 140.953 92.1747 140.55C92.3862 139.744 92.4475 138.9 92.4444 138.066L92.3933 132.976C92.4117 131.279 92.4087 129.581 92.4485 127.885C92.4863 126.187 92.5323 124.491 92.6273 122.794Z" fill="white"/>
    <path d="M88.8489 106.387C88.8969 106.787 89.1043 107.126 89.4077 107.352C89.6968 107.591 90.0564 107.769 90.3914 108C91.0677 108.446 91.6541 109.07 92.0678 109.778C92.4785 110.497 92.7165 111.31 92.7635 112.124C92.8074 112.945 92.7093 113.723 92.6276 114.519C92.5755 114.124 92.552 113.728 92.5142 113.331C92.4907 112.932 92.4734 112.545 92.4059 112.164C92.2782 111.403 92.0474 110.667 91.6622 110.013C91.2853 109.347 90.7704 108.783 90.1759 108.287C89.8848 108.033 89.5425 107.821 89.2514 107.517C88.9674 107.213 88.7876 106.786 88.8489 106.387Z" fill="white"/>
    <path d="M87.7513 101C87.5796 101 87.2977 101 87.1271 101H84.2657C84.0941 101 83.9531 101.14 83.9531 101.313V103.789C83.9531 103.96 84.0941 104.101 84.2657 104.101H87.1271C87.2977 104.101 87.5796 104.101 87.7513 104.101H90.6126C90.7843 104.101 90.9232 103.96 90.9232 103.789V101.313C90.9232 101.14 90.7843 101 90.6126 101H87.7513Z" fill="white"/>
    <path d="M87.4379 104.831H83.7256V104.363H87.4379V104.831Z" fill="#276B8A"/>
    <path d="M91.1524 104.831H87.438V104.363H91.1524V104.831Z" fill="#276B8A"/>
    <path d="M83.2456 115.715C84.6431 115.532 86.0416 115.49 87.4401 115.482C88.8366 115.489 90.2361 115.531 91.6336 115.715C90.2361 115.901 88.8366 115.943 87.4401 115.95C86.0416 115.942 84.6431 115.9 83.2456 115.715Z" fill="white"/>
    <path d="M83.2456 118.552C84.6431 118.368 86.0416 118.327 87.4401 118.318C88.8366 118.325 90.2361 118.367 91.6336 118.552C90.2361 118.738 88.8366 118.78 87.4401 118.787C86.0416 118.779 84.6431 118.737 83.2456 118.552Z" fill="white"/>
    <path d="M83.2456 121.389C84.6431 121.204 86.0416 121.162 87.4401 121.154C88.8366 121.161 90.2361 121.203 91.6336 121.389C90.2361 121.574 88.8366 121.616 87.4401 121.623C86.0416 121.615 84.6431 121.573 83.2456 121.389Z" fill="white"/>
    <path d="M90.6906 143.595C89.0337 143.595 88.9049 142.788 87.438 142.788V121.623C87.439 121.623 87.44 121.623 87.44 121.623C88.8365 121.616 90.236 121.574 91.6335 121.389C90.236 121.203 88.8365 121.161 87.44 121.154C87.44 121.154 87.439 121.154 87.438 121.154V118.787C87.439 118.787 87.44 118.787 87.44 118.787C88.8365 118.78 90.236 118.738 91.6335 118.552C90.236 118.367 88.8365 118.325 87.44 118.318C87.44 118.318 87.439 118.318 87.438 118.318V115.95C87.439 115.95 87.44 115.95 87.44 115.95C88.8365 115.943 90.236 115.901 91.6335 115.715C90.236 115.531 88.8365 115.489 87.44 115.482C87.44 115.482 87.439 115.482 87.438 115.482V111.15H92.1637C92.2689 111.479 92.3476 111.819 92.4058 112.164C92.4732 112.545 92.4906 112.932 92.5141 113.331C92.5519 113.728 92.5754 114.124 92.6275 114.519C92.7092 113.723 92.8073 112.945 92.7633 112.124C92.745 111.797 92.6949 111.47 92.6152 111.15H93.6736C93.8278 111.812 93.8779 112.428 93.8779 112.935C93.8779 113.142 93.8779 113.36 93.8779 113.586C93.8779 114.178 93.8779 114.829 93.8779 115.525C93.8779 115.659 93.7634 115.769 93.6235 115.769V116.075C93.7634 116.075 93.8779 116.185 93.8779 116.321C93.8779 116.939 93.8779 117.588 93.8779 118.258C93.8779 118.394 93.7634 118.503 93.6235 118.503V118.81C93.7634 118.81 93.8779 118.92 93.8779 119.054C93.8779 119.685 93.8779 120.334 93.8779 120.993C93.8779 121.127 93.7634 121.237 93.6235 121.237V121.543C93.7634 121.543 93.8779 121.653 93.8779 121.788C93.8779 122.429 93.8779 123.076 93.8779 123.725C93.8779 129.464 93.8779 135.363 93.8779 137.78C93.8779 141.942 92.3466 143.595 90.6906 143.595ZM92.8462 131C92.7512 132.697 90.0378 130.302 90 132C89.9602 133.696 92.4119 131.279 92.3935 132.976L92.4446 138.066C92.4477 138.9 92.3864 139.744 92.1749 140.55C92.0707 140.953 91.9298 141.349 91.6999 141.695C91.4741 142.032 91.1258 142.325 90.6906 142.344C90.7162 142.347 90.7427 142.347 90.7682 142.347C91.1738 142.347 91.5528 142.089 91.8 141.769C92.0707 141.426 92.2526 141.024 92.3946 140.616C92.6602 139.79 92.7633 138.929 92.8052 138.07C92.8492 136.369 92.843 134.674 92.8624 132.976C92.843 131.279 93.5388 133.196 93.5 131.5C93.4622 129.802 92.9423 132.697 92.8462 131Z" fill="#3F9AC4"/>
    <path d="M92.6274 114.519C92.5753 114.124 92.5518 113.728 92.514 113.331C92.4905 112.932 92.4731 112.545 92.4057 112.164C92.3475 111.819 92.2688 111.479 92.1636 111.15H92.6151C92.6948 111.47 92.7448 111.797 92.7632 112.124C92.8072 112.945 92.7091 113.723 92.6274 114.519Z" fill="#E2FAFA"/>
    <path d="M87.44 115.95C87.44 115.95 87.439 115.95 87.438 115.95V115.482C87.439 115.482 87.44 115.482 87.44 115.482C88.8365 115.489 90.236 115.531 91.6335 115.715C90.236 115.901 88.8365 115.943 87.44 115.95Z" fill="#E2FAFA"/>
    <path d="M87.44 118.787C87.44 118.787 87.439 118.787 87.438 118.787V118.318C87.439 118.318 87.44 118.318 87.44 118.318C88.8365 118.325 90.236 118.367 91.6335 118.552C90.236 118.738 88.8365 118.78 87.44 118.787Z" fill="#E2FAFA"/>
    <path d="M87.44 121.623C87.44 121.623 87.439 121.623 87.438 121.623V121.154C87.439 121.154 87.44 121.154 87.44 121.154C88.8365 121.161 90.236 121.203 91.6335 121.389C90.236 121.574 88.8365 121.616 87.44 121.623Z" fill="#E2FAFA"/>
</g>
<defs>
    <filter id="filter0_d" x="0" y="0" width="156" height="190" filterUnits="userSpaceOnUse" color-interpolation-filters="sRGB">
        <feFlood flood-opacity="0" result="BackgroundImageFix"/>
        <feColorMatrix in="SourceAlpha" type="matrix" values="0 0 0 0 0 0 0 0 0 0 0 0 0 0 0 0 0 0 127 0"/>
        <feOffset dy="4"/>
        <feGaussianBlur stdDeviation="15"/>
        <feColorMatrix type="matrix" values="0 0 0 0 0 0 0 0 0 0 0 0 0 0 0 0 0 0 0.05 0"/>
        <feBlend mode="normal" in2="BackgroundImageFix" result="effect1_dropShadow"/>
        <feBlend mode="normal" in="SourceGraphic" in2="effect1_dropShadow" result="shape"/>
    </filter>
</defs>
</svg>
