<svg width="96" height="130" viewBox="0 0 96 130" fill="none" xmlns="http://www.w3.org/2000/svg">
<g filter="url(#filter0_d)">
    <rect x="0" y="0" width="96" height="130" rx="8" fill="white"/>
</g>
<mask id="mask0" mask-type="alpha" maskUnits="userSpaceOnUse" x="0" y="0" width="96" height="130">
    <rect x="0.5" y="0.5" width="95" height="129" rx="7.5" fill="#F5F8FF" stroke="#D5DDE0"/>
</mask>
<g mask="url(#mask0)">
    <path d="M108.991 81.1693C109.003 79.0436 109.003 79.0436 108.993 74.0554C108.98 67.1587 98.3454 74.7315 92.2486 74.6336C86.5772 74.5421 82.7372 74.2206 75.6371 70.9019C67.0627 66.8944 56.8349 58.277 46.6986 57.4945C38.899 56.893 28.1391 61.8037 18.0221 63.9883C4.27052 66.9579 -1.48463 53.7797 -12.366 57.7538L-13 177L108.456 176.212L108.991 81.1693Z" fill="#418DE8"/>
    <path d="M90.2693 144C89.8624 144 89.6271 143.986 89.6271 143.986L66.409 143.987C66.407 143.988 66.1777 144 65.7946 144C59.528 144 52.8315 141.506 52.8315 134.51V83.3501C52.8315 74.7855 59.6888 69.6366 72.6726 68.4425V56.6121H83.3863V68.4425C96.3702 69.6366 103.23 74.7855 103.23 83.3501V134.51C103.23 138.267 101.305 141.075 97.6656 142.629C94.769 143.866 91.528 144 90.2693 144Z" fill="#D6FEFD"/>
    <path d="M52.8315 87.3634V134.51C52.8315 138.35 54.8536 140.826 57.7075 142.285H98.3555C101.536 140.679 103.23 138.014 103.23 134.51V87.3634H52.8315Z" fill="#87E3FF"/>
    <path d="M82.7236 70.672C84.3486 70.664 85.9756 70.7971 87.5886 71.0422C89.2017 71.2815 90.7968 71.6765 92.3464 72.2265C93.886 72.7953 95.3859 73.5328 96.6872 74.5592C97.3364 75.0724 97.934 75.6501 98.4591 76.2844C98.9654 76.9346 99.4031 77.6364 99.7118 78.3878C98.8314 77.021 97.6819 75.8854 96.3676 74.997C95.0484 74.1165 93.6061 73.4266 92.1062 72.8895C90.6092 72.3376 89.0538 71.9346 87.4874 71.5733C85.917 71.2219 84.3258 70.9539 82.7236 70.672Z" fill="white"/>
    <path d="M85.1048 56.7103C85.1048 57.2305 84.661 57.6583 84.122 57.6583H71.9402C71.3992 57.6583 70.9575 57.2305 70.9575 56.7103V55.951C70.9575 55.4269 71.3992 55 71.9402 55H84.122C84.661 55 85.1048 55.4269 85.1048 55.951V56.7103Z" fill="#55AAD0"/>
    <path d="M104.063 114.591C104.063 115.571 103.217 116.373 102.183 116.373H53.8811C52.8457 116.373 52 115.571 52 114.591V110.196C52 109.217 52.8457 108.414 53.8811 108.414H102.183C103.217 108.414 104.063 109.217 104.063 110.196V114.591Z" fill="#55AAD0"/>
    <path d="M104.063 87.3634C104.063 88.3431 103.217 89.1442 102.183 89.1442H53.8811C52.8457 89.1442 52 88.3431 52 87.3634V82.9709C52 81.9921 52.8457 81.1901 53.8811 81.1901H102.183C103.217 81.1901 104.063 81.9921 104.063 82.9709V87.3634Z" fill="#55AAD0"/>
    <path d="M83.4184 60.5241H72.6442C72.0317 60.5241 71.5513 61.1624 71.5513 61.9764V63.2946C71.5513 64.1116 72.0317 64.7498 72.6442 64.7498H83.4184C84.0309 64.7498 84.5093 64.1116 84.5093 63.2946V61.9764C84.5093 61.1624 84.0309 60.5241 83.4184 60.5241Z" fill="#BBFBFA"/>
</g>
<defs>
    <filter id="filter0_d" x="0" y="0" width="156" height="190" filterUnits="userSpaceOnUse" color-interpolation-filters="sRGB">
        <feFlood flood-opacity="0" result="BackgroundImageFix"/>
        <feColorMatrix in="SourceAlpha" type="matrix" values="0 0 0 0 0 0 0 0 0 0 0 0 0 0 0 0 0 0 127 0"/>
        <feOffset dy="4"/>
        <feGaussianBlur stdDeviation="15"/>
        <feColorMatrix type="matrix" values="0 0 0 0 0 0 0 0 0 0 0 0 0 0 0 0 0 0 0.05 0"/>
        <feBlend mode="normal" in2="BackgroundImageFix" result="effect1_dropShadow"/>
        <feBlend mode="normal" in="SourceGraphic" in2="effect1_dropShadow" result="shape"/>
    </filter>
</defs>
</svg>
